<?xml version="1.0" encoding="iso-8859-1"?>
<!-- Generator: Adobe Illustrator 19.0.0, SVG Export Plug-In . SVG Version: 6.00 Build 0)  -->
<svg version="1.1" id="Capa_1" xmlns="http://www.w3.org/2000/svg" xmlns:xlink="http://www.w3.org/1999/xlink" x="0px" y="0px"
	 viewBox="0 0 504.123 504.123" style="enable-background:new 0 0 504.123 504.123;" xml:space="preserve">
<circle style="fill:#FCBD5E;" cx="252.062" cy="252.062" r="252.062"/>
<path style="fill:#183651;" d="M425.354,192.985h-48.049c-4.726,0-7.877-3.151-7.877-7.877c0-4.726,3.151-7.877,7.877-7.877h44.898
	l44.898-40.96c3.151-3.151,7.877-2.363,11.028,0.788c3.151,3.151,2.363,7.877-0.788,11.028l-47.262,43.323
	C429.292,192.197,427.717,192.985,425.354,192.985z"/>
<circle style="fill:#FFFFFF;" cx="472.615" cy="142.572" r="23.631"/>
<g>
	<path style="fill:#183651;" d="M472.615,174.08c-17.329,0-31.508-14.178-31.508-31.508s14.178-31.508,31.508-31.508
		s31.508,14.178,31.508,31.508S489.945,174.08,472.615,174.08z M472.615,126.818c-8.665,0-15.754,7.089-15.754,15.754
		s7.089,15.754,15.754,15.754s15.754-7.089,15.754-15.754S481.28,126.818,472.615,126.818z"/>
	<path style="fill:#183651;" d="M467.102,367.852l-44.111-40.96h-44.898c-4.726,0-7.877-3.151-7.877-7.877s3.151-7.877,7.877-7.877
		h48.049c2.363,0,3.938,0.788,5.514,2.363l47.262,43.323c3.151,3.151,3.151,7.877,0.788,11.028
		C475.766,370.215,470.252,371.003,467.102,367.852z"/>
</g>
<circle style="fill:#FFFFFF;" cx="472.615" cy="361.551" r="23.631"/>
<g>
	<path style="fill:#183651;" d="M472.615,393.058c-17.329,0-31.508-14.178-31.508-31.508s14.178-31.508,31.508-31.508
		s31.508,14.178,31.508,31.508C504.123,379.668,489.945,393.058,472.615,393.058z M472.615,345.797
		c-8.665,0-15.754,7.089-15.754,15.754s7.089,15.754,15.754,15.754s15.754-7.089,15.754-15.754
		C488.369,352.886,481.28,345.797,472.615,345.797z"/>
	<path style="fill:#183651;" d="M472.615,259.938h-77.982c-4.726,0-7.877-3.151-7.877-7.877s3.151-7.877,7.877-7.877h77.982
		c4.726,0,7.877,3.151,7.877,7.877S477.342,259.938,472.615,259.938z"/>
</g>
<circle style="fill:#FFFFFF;" cx="472.615" cy="252.062" r="23.631"/>
<g>
	<path style="fill:#183651;" d="M472.615,283.569c-17.329,0-31.508-14.178-31.508-31.508s14.178-31.508,31.508-31.508
		s31.508,14.178,31.508,31.508S489.945,283.569,472.615,283.569z M472.615,236.308c-8.665,0-15.754,7.089-15.754,15.754
		c0,8.665,7.089,15.754,15.754,15.754s15.754-7.089,15.754-15.754C488.369,243.397,481.28,236.308,472.615,236.308z"/>
	<path style="fill:#183651;" d="M126.818,192.985H78.769c-2.363,0-3.938-0.788-5.514-2.363l-47.262-43.323
		c-3.151-3.151-3.151-7.877-0.788-11.028c3.151-3.151,7.877-3.151,11.028-0.788l44.898,40.96h44.898
		c4.726,0,7.877,3.151,7.877,7.877C134.695,189.834,130.757,192.985,126.818,192.985z"/>
</g>
<circle style="fill:#FFFFFF;" cx="31.508" cy="142.572" r="23.631"/>
<g>
	<path style="fill:#183651;" d="M31.508,174.08C14.178,174.08,0,159.902,0,142.572s14.178-31.508,31.508-31.508
		s31.508,14.178,31.508,31.508S48.837,174.08,31.508,174.08z M31.508,126.818c-8.665,0-15.754,7.089-15.754,15.754
		s7.089,15.754,15.754,15.754s15.754-7.089,15.754-15.754S40.172,126.818,31.508,126.818z"/>
	<path style="fill:#183651;" d="M25.994,367.065c-3.151-3.151-2.363-7.877,0.788-11.028l47.262-43.323
		c1.575-1.575,3.151-2.363,5.514-2.363h48.049c4.726,0,7.877,3.151,7.877,7.877c0,4.726-3.151,7.877-7.877,7.877H82.708
		l-44.898,40.96C33.871,371.003,28.357,370.215,25.994,367.065z"/>
</g>
<circle style="fill:#FFFFFF;" cx="31.508" cy="361.551" r="23.631"/>
<g>
	<path style="fill:#183651;" d="M31.508,393.058C14.178,393.058,0,378.88,0,361.551s14.178-31.508,31.508-31.508
		s31.508,14.178,31.508,31.508C63.015,379.668,48.837,393.058,31.508,393.058z M31.508,345.797c-8.665,0-15.754,7.089-15.754,15.754
		s7.089,15.754,15.754,15.754s15.754-7.089,15.754-15.754C47.262,352.886,40.172,345.797,31.508,345.797z"/>
	<path style="fill:#183651;" d="M109.489,259.938H31.508c-4.726,0-7.877-3.151-7.877-7.877s3.151-7.877,7.877-7.877h77.982
		c4.726,0,7.877,3.151,7.877,7.877S114.215,259.938,109.489,259.938z"/>
</g>
<circle style="fill:#E1E6E8;" cx="252.062" cy="252.062" r="142.572"/>
<g>
	<path style="fill:#2AA0DA;" d="M254.425,122.092c0,0-40.172-10.24-43.323,25.994c0,0-7.877,14.178-18.117-1.575
		c0,0-22.055,0-11.028,46.474c0,0-41.748,58.289,11.815,56.714c0,0,20.48-17.329,31.508,30.72c0,0,4.726,25.206,15.754,37.022
		c0,0,14.966,1.575,22.055-22.843c0,0-0.788-7.089,10.24-18.117c0,0-11.815-18.905,8.665-29.145c0,0,10.24-3.151,9.452-20.48
		c0,0,14.178-5.514,11.815-18.905c0,0,25.206-7.089,25.994,32.295c0,0,2.363,9.452,10.24,12.603c0,0-12.603-26.782,5.514-29.932
		c0,0,10.24-7.089,17.329,25.994c0,0,14.178,3.938,7.877-15.754c0,0,15.754,11.815,13.391-34.658
		c-14.178-34.658-40.96-62.228-74.831-77.194C304.049,122.88,278.055,129.182,254.425,122.092z"/>
	<path style="fill:#2AA0DA;" d="M174.08,322.166c0,0,50.412-19.692-5.514-24.418l-3.938-24.418h-18.905
		c0,0,3.151-33.083-13.391-15.754c0,0-15.754,8.665-20.48,16.542c7.089,46.474,36.234,85.071,77.194,105.551
		c0,0,53.563,13.391,63.803,10.24C252.062,389.12,178.018,351.311,174.08,322.166z"/>
	<path style="fill:#2AA0DA;" d="M391.483,278.843l-11.815,2.363c-3.151,25.206-37.022,17.329-37.022,17.329
		c-33.871,10.24-22.843,29.145-22.843,29.145c18.117,0,24.418,20.48,24.418,20.48l4.726,7.877
		C371.003,335.557,385.969,308.775,391.483,278.843z"/>
</g>
<path style="fill:#183651;" d="M252.062,402.511c-82.708,0-150.449-67.742-150.449-150.449s66.954-150.449,150.449-150.449
	c82.708,0,150.449,66.954,150.449,150.449C402.511,334.769,334.769,402.511,252.062,402.511z M252.062,117.366
	c-74.043,0-134.695,60.652-134.695,134.695s60.652,134.695,134.695,134.695s134.695-60.652,134.695-134.695
	S326.105,117.366,252.062,117.366z"/>
<circle style="fill:#FFFFFF;" cx="31.508" cy="252.062" r="23.631"/>
<g>
	<path style="fill:#183651;" d="M31.508,283.569C14.178,283.569,0,269.391,0,252.062s14.178-31.508,31.508-31.508
		s31.508,14.178,31.508,31.508S48.837,283.569,31.508,283.569z M31.508,236.308c-8.665,0-15.754,7.089-15.754,15.754
		c0,8.665,7.089,15.754,15.754,15.754s15.754-7.089,15.754-15.754C47.262,243.397,40.172,236.308,31.508,236.308z"/>
	<rect x="134.695" y="439.532" style="fill:#183651;" width="15.754" height="15.754"/>
	<rect x="178.018" y="439.532" style="fill:#183651;" width="15.754" height="15.754"/>
	<rect x="222.129" y="439.532" style="fill:#183651;" width="15.754" height="15.754"/>
	<rect x="266.24" y="439.532" style="fill:#183651;" width="15.754" height="15.754"/>
	<rect x="310.351" y="439.532" style="fill:#183651;" width="15.754" height="15.754"/>
	<rect x="353.674" y="439.532" style="fill:#183651;" width="15.754" height="15.754"/>
	<rect x="134.695" y="48.837" style="fill:#183651;" width="15.754" height="15.754"/>
	<rect x="178.018" y="48.837" style="fill:#183651;" width="15.754" height="15.754"/>
	<rect x="222.129" y="48.837" style="fill:#183651;" width="15.754" height="15.754"/>
	<rect x="266.24" y="48.837" style="fill:#183651;" width="15.754" height="15.754"/>
	<rect x="310.351" y="48.837" style="fill:#183651;" width="15.754" height="15.754"/>
	<rect x="353.674" y="48.837" style="fill:#183651;" width="15.754" height="15.754"/>
</g>
<g>
</g>
<g>
</g>
<g>
</g>
<g>
</g>
<g>
</g>
<g>
</g>
<g>
</g>
<g>
</g>
<g>
</g>
<g>
</g>
<g>
</g>
<g>
</g>
<g>
</g>
<g>
</g>
<g>
</g>
</svg>
